<mxfile host="app.diagrams.net" modified="2024-05-20T05:27:35.816Z" agent="Mozilla/5.0 (Macintosh; Intel Mac OS X 10_15_7) AppleWebKit/537.36 (KHTML, like Gecko) Chrome/124.0.0.0 Safari/537.36" version="24.4.4" etag="65xFA2JxidL-zy-204pv" type="github">
  <diagram name="페이지-1" id="L9HDLOUr7MTqU7qpSXxo">
    <mxGraphModel>
      <root>
        <mxCell id="0" />
        <mxCell id="1" parent="0" />
      </root>
    </mxGraphModel>
  </diagram>
</mxfile>
